<mxfile host="app.diagrams.net" modified="2023-08-17T09:01:21.632Z" agent="Mozilla/5.0 (Windows NT 10.0; Win64; x64) AppleWebKit/537.36 (KHTML, like Gecko) Chrome/115.0.0.0 Safari/537.36" etag="6TTIp-qOiN_lvdoOBsK4" version="21.6.8" type="github">
  <diagram name="Page-1" id="fDDw92V6eHKw1K2nFNa-">
    <mxGraphModel dx="1434" dy="782" grid="1" gridSize="10" guides="1" tooltips="1" connect="1" arrows="1" fold="1" page="1" pageScale="1" pageWidth="850" pageHeight="1100" math="0" shadow="0">
      <root>
        <mxCell id="0" />
        <mxCell id="1" parent="0" />
        <mxCell id="u8z3rb-vYD9zZZuDvXcQ-1" value="Doc Store" style="whiteSpace=wrap;html=1;aspect=fixed;" vertex="1" parent="1">
          <mxGeometry x="420" y="320" width="80" height="80" as="geometry" />
        </mxCell>
        <mxCell id="u8z3rb-vYD9zZZuDvXcQ-2" value="Alfresco" style="whiteSpace=wrap;html=1;aspect=fixed;" vertex="1" parent="1">
          <mxGeometry x="420" y="510" width="80" height="80" as="geometry" />
        </mxCell>
        <mxCell id="u8z3rb-vYD9zZZuDvXcQ-3" value="eCabinet" style="whiteSpace=wrap;html=1;aspect=fixed;" vertex="1" parent="1">
          <mxGeometry x="260" y="350" width="80" height="80" as="geometry" />
        </mxCell>
        <mxCell id="u8z3rb-vYD9zZZuDvXcQ-4" value="Inbox" style="whiteSpace=wrap;html=1;aspect=fixed;" vertex="1" parent="1">
          <mxGeometry x="260" y="480" width="80" height="80" as="geometry" />
        </mxCell>
        <mxCell id="u8z3rb-vYD9zZZuDvXcQ-6" value="&lt;pre style=&quot;border-color: var(--border-color); color: rgb(8, 8, 8); font-family: &amp;quot;JetBrains Mono&amp;quot;, monospace; font-size: 9.8pt;&quot;&gt;SP_GEN_S_INBOX2_SG&lt;/pre&gt;" style="rounded=0;whiteSpace=wrap;html=1;" vertex="1" parent="1">
          <mxGeometry x="30" y="430" width="140" height="60" as="geometry" />
        </mxCell>
      </root>
    </mxGraphModel>
  </diagram>
</mxfile>
